<svg width="28" height="28" viewBox="0 0 28 28" fill="none" xmlns="http://www.w3.org/2000/svg">
<path d="M6.5 8.75H21.5C22.2956 8.75 23.0587 9.06607 23.6213 9.62868C24.1839 10.1913 24.5 10.9544 24.5 11.75V16.25C24.5 17.0456 24.1839 17.8087 23.6213 18.3713C23.0587 18.9339 22.2956 19.25 21.5 19.25H6.5C5.70435 19.25 4.94129 18.9339 4.37868 18.3713C3.81607 17.8087 3.5 17.0456 3.5 16.25V11.75C3.5 10.9544 3.81607 10.1913 4.37868 9.62868C4.94129 9.06607 5.70435 8.75 6.5 8.75V8.75ZM6.5 10.25C6.10218 10.25 5.72064 10.408 5.43934 10.6893C5.15804 10.9706 5 11.3522 5 11.75V16.25C5 16.6478 5.15804 17.0294 5.43934 17.3107C5.72064 17.592 6.10218 17.75 6.5 17.75H21.5C21.8978 17.75 22.2794 17.592 22.5607 17.3107C22.842 17.0294 23 16.6478 23 16.25V11.75C23 11.3522 22.842 10.9706 22.5607 10.6893C22.2794 10.408 21.8978 10.25 21.5 10.25H6.5ZM3.5 5C3.5 4.80109 3.57902 4.61032 3.71967 4.46967C3.86032 4.32902 4.05109 4.25 4.25 4.25H23.75C23.9489 4.25 24.1397 4.32902 24.2803 4.46967C24.421 4.61032 24.5 4.80109 24.5 5C24.5 5.19891 24.421 5.38968 24.2803 5.53033C24.1397 5.67098 23.9489 5.75 23.75 5.75H4.25C4.05109 5.75 3.86032 5.67098 3.71967 5.53033C3.57902 5.38968 3.5 5.19891 3.5 5V5ZM3.5 23C3.5 22.8011 3.57902 22.6103 3.71967 22.4697C3.86032 22.329 4.05109 22.25 4.25 22.25H23.75C23.9489 22.25 24.1397 22.329 24.2803 22.4697C24.421 22.6103 24.5 22.8011 24.5 23C24.5 23.1989 24.421 23.3897 24.2803 23.5303C24.1397 23.671 23.9489 23.75 23.75 23.75H4.25C4.05109 23.75 3.86032 23.671 3.71967 23.5303C3.57902 23.3897 3.5 23.1989 3.5 23V23Z" fill="black"/>
</svg>
